<?xml version="1.0" encoding="iso-8859-1"?>
<!-- Uploaded to: SVG Repo, www.svgrepo.com, Generator: SVG Repo Mixer Tools -->
<!DOCTYPE svg PUBLIC "-//W3C//DTD SVG 1.1//EN" "http://www.w3.org/Graphics/SVG/1.1/DTD/svg11.dtd">
<svg fill="#000000" version="1.1" id="Capa_1" xmlns="http://www.w3.org/2000/svg" xmlns:xlink="http://www.w3.org/1999/xlink" 
	 width="800px" height="800px" viewBox="0 0 194.057 194.057"
	 xml:space="preserve">
<g>
	<g>
		<path d="M114.083,82.808c22.371-13.655,3.617-41.512-17.232-43.38c-23.383-2.095-39.084,37.791-15.646,46.229
			c-11.434,9.77-8.694,39.304-7.996,50.382c0.161,2.557,2.237,4.033,4.705,3.585c1.906-0.304,3.827-0.466,5.748-0.628
			c-0.983,3.189-0.868,7.119-0.96,10.158c-0.388,12.681,3.407,25.111,0.637,37.75c-0.551,2.515,1.122,4.674,3.675,4.824
			c6.947,0.409,14.053,3.586,20.92,1.774c1.584-0.418,2.133-1.701,1.936-2.938c2.661,0.518,5.556-2.313,4.062-5.568
			c-3.118-6.799-1.435-16.305-0.786-23.479c0.757-8.378,2.14-16.72,2.24-25.145c2.179,0.102,4.361-0.09,6.693,0.273
			c2.321,0.362,4.529-0.938,4.578-3.486C126.984,116.326,132.283,92.303,114.083,82.808z M115.676,62.291
			c-0.255-0.173-0.511-0.343-0.76-0.522c-2.86-2.05-5.739-4.071-8.568-6.165c-2.525-1.869-4.962-3.843-7.254-5.992
			c-0.755-0.707-1.472-1.615-2.277-2.375c0.012,0,0.023-0.003,0.034-0.003C105.812,47.323,113.899,54.511,115.676,62.291z
			 M93.202,47.606c-0.015,3.709,6.147,8.073,8.296,9.943c2.682,2.332,5.486,4.524,8.264,6.738c1.723,1.373,3.66,3.574,5.882,4.259
			c-0.562,2.113-1.697,4.142-3.576,5.94c-0.171-0.351-0.417-0.691-0.821-0.984c-9.328-6.787-18.151-13.922-26.409-21.91
			C87.243,49.605,90.113,48.221,93.202,47.606z M78.262,61.992c0.818-3.328,2.507-6.293,4.758-8.692
			c7.629,8.761,17.161,15.706,25.399,23.865c0.067,0.067,0.141,0.079,0.208,0.136c-1.518,1.777-0.943,4.318,0.615,5.623
			c-0.681,0.575-1.178,1.359-1.389,2.185c-3.323-2.32-6.706-4.555-9.634-6.93c-6.453-5.231-12.952-10.8-20.166-15.022
			C78.127,62.767,78.164,62.39,78.262,61.992z M77.657,67.078c6.678,5.101,13.236,10.312,19.63,15.8
			c5.652,4.852,12.088,12.619,19.458,14.73c0.485,0.139,0.913,0.097,1.274-0.054c1.719,3.847,2.37,8.354,2.491,13.045
			c-0.083-0.192-0.19-0.372-0.326-0.526c-3.938-4.498-10.888-7.51-15.694-11.062c-4.867-3.595-9.351-7.466-13.626-11.612
			c1.269-1.856,0.213-5.134-2.411-4.851c-0.701,0.076-1.348,0.234-1.988,0.403c-0.417-0.44-0.847-0.858-1.261-1.304
			c-0.268-0.289-0.582-0.411-0.896-0.437C80.119,77.183,77.686,72.55,77.657,67.078z M85.571,133.292
			c-1.628-0.099-3.241-0.332-4.859-0.531c0.018-1.01,0.007-2.021,0.005-3.032c1.791,1.243,3.593,2.473,5.393,3.705
			C85.929,133.387,85.775,133.309,85.571,133.292z M90.71,157.902c-0.251-2.724-0.419-5.447-0.52-8.174
			c1.783,1.719,3.602,3.402,5.4,5.094c1.539,1.449,3.078,2.898,4.58,4.385c0.618,0.611,1.187,1.352,1.908,1.841
			c1.285,0.873,0.454,0.575,0.438-0.319c0.107,0.793,0.681,1.512,1.561,1.615c-0.325,2.725-0.57,5.439-0.634,8.094
			c-0.187-0.148-0.373-0.293-0.556-0.449c-1.491-1.271-2.868-2.676-4.238-4.071c-2.574-2.622-5.012-5.37-7.708-7.869
			C90.868,157.979,90.788,157.953,90.71,157.902z M91.447,184.486c0.252-1.924,0.373-3.848,0.441-5.77
			c1.845,1.551,3.746,3.037,5.714,4.461c1.302,0.941,2.743,2.045,4.267,3.083C98.469,185.421,94.925,184.841,91.447,184.486z
			 M100.788,180.564c-3.102-1.936-6.051-4.143-8.908-6.455c-0.089-3.779-0.4-7.572-0.753-11.381
			c1.671,1.898,3.335,3.805,5.025,5.686c1.834,2.042,4.508,5.779,7.368,6.533c0.165,2.689,0.548,5.291,1.269,7.733
			C103.408,182.014,102.036,181.343,100.788,180.564z M104.737,157.445c-0.875-0.949-1.949-1.734-2.958-2.551
			c-3.854-3.113-7.801-6.121-11.632-9.265c-0.002-0.894-0.05-1.786-0.029-2.683c0.066-2.721,0.655-4.596,0.069-6.625
			c4.292,3.344,8.502,7.756,13.25,9.847c1.578,0.694,3.142-0.724,2.35-2.351c-2.154-4.422-8.01-7.387-11.969-10.006
			c-4.322-2.861-8.734-5.584-13.131-8.328c-0.059-3.84-0.115-7.683-0.02-11.522c4.131,3.981,8.275,7.95,12.473,11.862
			c3.804,3.545,8.311,9.207,13.564,10.517c0.317,0.079,0.615,0.045,0.896-0.034C107.355,142.527,105.871,149.91,104.737,157.445z
			 M119.511,130.348c-2.42,0.553-4.954,0.848-7.361,0.491c-1.775-0.263-2.854,0.933-2.925,2.213c-0.21,0.146-0.405,0.313-0.584,0.5
			c-0.061-0.077-0.099-0.159-0.176-0.231c-4.32-4.031-9.431-7.291-13.914-11.187c-4.534-3.938-8.978-8.009-13.744-11.669
			c0.307-4.773,1.063-8.678,2.581-12.266c6.05,5.865,12.602,11.221,19.234,16.396c4.099,3.198,11.304,10.68,17.257,10.271
			C119.733,126.768,119.596,128.607,119.511,130.348z M120.194,120.66c-4.689-4.227-11.472-7.223-16.502-10.844
			c-6.424-4.625-12.707-9.515-18.825-14.575c0.915-1.603,2.032-3.174,3.341-4.763c4.152,4.442,9.123,8.362,13.578,12.037
			c4.549,3.752,10.825,10.372,16.93,11.105c0.936,0.111,1.541-0.42,1.816-1.131C120.526,115.212,120.385,117.966,120.194,120.66z"/>
		<path d="M154.411,51.446c-9.359-23.557-34.807-33.127-58.442-32.344c-25.195,0.834-47.97,15.178-55.831,39.482
			c-5.769,17.838,1.218,44.566,17.59,55.251c2.04,1.332,4.601-0.853,3.991-3.069C58.756,100,50.616,92.182,48.004,80.74
			c-6.311-27.661,16.2-46.87,40.705-52.017c21.443-4.504,44.153,3.368,55.778,22.199c10.258,16.618,8.071,46.261-7.276,58.941
			c-4.389,3.625,1.892,9.842,6.238,6.238C161.351,101.27,162.447,71.67,154.411,51.446z"/>
		<path d="M176.003,57.339C163.665,12.628,113.209-7.57,71.067,2.57C32.201,11.922,8.71,48.455,15.401,87.739
			c2.478,14.546,23.043,79.24,48.199,59.475c0.939-0.737,0.339-2.292-0.678-2.569c-12.788-3.478-18.778-8.457-25.45-20.312
			c-6.293-11.184-10.159-23.824-12.963-36.293c-7.72-34.347,12.646-64.713,44.646-75.653c37.817-12.928,82.593,5.858,97.033,43.733
			c10.083,26.447,6.625,69.259-24.173,79.903c-5.452,1.885-3.114,10.577,2.393,8.684C179.943,132.482,184.754,89.054,176.003,57.339
			z"/>
	</g>
</g>
</svg>